<mxfile host="app.diagrams.net" agent="Mozilla/5.0 (Macintosh; Intel Mac OS X 10_15_7) AppleWebKit/537.36 (KHTML, like Gecko) Chrome/133.0.0.0 Safari/537.36" version="26.0.16">
  <diagram name="Page-1" id="lBiywNHC9uTIhG72odCF">
    <mxGraphModel dx="1265" dy="760" grid="0" gridSize="10" guides="1" tooltips="1" connect="1" arrows="1" fold="1" page="1" pageScale="1" pageWidth="850" pageHeight="1100" math="0" shadow="0">
      <root>
        <mxCell id="0" />
        <mxCell id="1" parent="0" />
        <mxCell id="5OTNmD0rPefbRVRFv_l5-1" value="" style="rounded=1;whiteSpace=wrap;html=1;" vertex="1" parent="1">
          <mxGeometry x="141" y="201" width="351" height="370" as="geometry" />
        </mxCell>
        <mxCell id="5OTNmD0rPefbRVRFv_l5-2" value="" style="rounded=1;whiteSpace=wrap;html=1;" vertex="1" parent="1">
          <mxGeometry x="152" y="289" width="331" height="266" as="geometry" />
        </mxCell>
        <mxCell id="5OTNmD0rPefbRVRFv_l5-3" value="ElizaOS Framework" style="rounded=1;whiteSpace=wrap;html=1;" vertex="1" parent="1">
          <mxGeometry x="160" y="373" width="157" height="162" as="geometry" />
        </mxCell>
        <mxCell id="5OTNmD0rPefbRVRFv_l5-4" value="Custom Eliza Orderbook Plugin" style="rounded=1;whiteSpace=wrap;html=1;" vertex="1" parent="1">
          <mxGeometry x="355" y="424" width="120" height="60" as="geometry" />
        </mxCell>
        <mxCell id="5OTNmD0rPefbRVRFv_l5-5" value="" style="endArrow=classic;html=1;rounded=0;exitX=1;exitY=0.5;exitDx=0;exitDy=0;entryX=0.5;entryY=1;entryDx=0;entryDy=0;" edge="1" parent="1" source="5OTNmD0rPefbRVRFv_l5-4" target="5OTNmD0rPefbRVRFv_l5-7">
          <mxGeometry width="50" height="50" relative="1" as="geometry">
            <mxPoint x="399" y="416" as="sourcePoint" />
            <mxPoint x="659" y="326" as="targetPoint" />
            <Array as="points">
              <mxPoint x="661" y="457" />
            </Array>
          </mxGeometry>
        </mxCell>
        <mxCell id="5OTNmD0rPefbRVRFv_l5-6" value="" style="endArrow=classic;startArrow=classic;html=1;rounded=0;exitX=1;exitY=0.5;exitDx=0;exitDy=0;entryX=0;entryY=0.5;entryDx=0;entryDy=0;" edge="1" parent="1" source="5OTNmD0rPefbRVRFv_l5-3" target="5OTNmD0rPefbRVRFv_l5-4">
          <mxGeometry width="50" height="50" relative="1" as="geometry">
            <mxPoint x="399" y="416" as="sourcePoint" />
            <mxPoint x="449" y="366" as="targetPoint" />
          </mxGeometry>
        </mxCell>
        <mxCell id="5OTNmD0rPefbRVRFv_l5-7" value="On-&lt;span style=&quot;background-color: transparent; color: light-dark(rgb(0, 0, 0), rgb(255, 255, 255));&quot;&gt;Chain&amp;nbsp;&lt;/span&gt;&lt;div&gt;&lt;span style=&quot;background-color: transparent; color: light-dark(rgb(0, 0, 0), rgb(255, 255, 255));&quot;&gt;Orderbook Contract&lt;/span&gt;&lt;/div&gt;" style="shape=parallelogram;perimeter=parallelogramPerimeter;whiteSpace=wrap;html=1;fixedSize=1;" vertex="1" parent="1">
          <mxGeometry x="590" y="87" width="147" height="160" as="geometry" />
        </mxCell>
        <mxCell id="5OTNmD0rPefbRVRFv_l5-8" value="" style="endArrow=classic;startArrow=classic;html=1;rounded=0;entryX=0.5;entryY=1;entryDx=0;entryDy=0;exitX=0;exitY=0.5;exitDx=0;exitDy=0;" edge="1" parent="1" source="5OTNmD0rPefbRVRFv_l5-12" target="5OTNmD0rPefbRVRFv_l5-3">
          <mxGeometry width="50" height="50" relative="1" as="geometry">
            <mxPoint x="343" y="697" as="sourcePoint" />
            <mxPoint x="449" y="366" as="targetPoint" />
            <Array as="points">
              <mxPoint x="239" y="700" />
            </Array>
          </mxGeometry>
        </mxCell>
        <mxCell id="5OTNmD0rPefbRVRFv_l5-12" value="Gaia Local Node (running DeepSeek R1)" style="whiteSpace=wrap;html=1;aspect=fixed;" vertex="1" parent="1">
          <mxGeometry x="394" y="614" width="174" height="174" as="geometry" />
        </mxCell>
        <mxCell id="5OTNmD0rPefbRVRFv_l5-15" value="" style="shape=image;imageAspect=0;aspect=fixed;verticalLabelPosition=bottom;verticalAlign=top;image=https://imgs.search.brave.com/NQ2G-CMCNcgM3gC4TJcqF3uHfVUqWsntRQQ0hTolUbg/rs:fit:860:0:0:0/g:ce/aHR0cHM6Ly91cGxv/YWQud2lraW1lZGlh/Lm9yZy93aWtpcGVk/aWEvZW4vZi9mNC9E/b2NrZXJfbG9nby5z/dmc;" vertex="1" parent="1">
          <mxGeometry x="219" y="306" width="189.09" height="48" as="geometry" />
        </mxCell>
        <mxCell id="5OTNmD0rPefbRVRFv_l5-16" value="" style="shape=image;imageAspect=0;aspect=fixed;verticalLabelPosition=bottom;verticalAlign=top;image=https://imgs.search.brave.com/nGMt5TlBcSEWyDXiGz4gtsyB5qyQiFDctYcvQehry2Y/rs:fit:860:0:0:0/g:ce/aHR0cHM6Ly9zdG9y/YWdlLmdvb2dsZWFw/aXMuY29tL2FpYWdl/bnRzXzEvYWdlbnQt/bG9nb3MvMTczNjY0/MTAxNDEzNy1RbVpD/U0poMlBya3FxM0Yy/M1gxRUg3WW1pYzNH/UTJtcXZZWlNoMnlH/ZGlzb0pNLmpwZWc;" vertex="1" parent="1">
          <mxGeometry x="207.18" y="380" width="62.63" height="62.75" as="geometry" />
        </mxCell>
        <mxCell id="5OTNmD0rPefbRVRFv_l5-17" value="" style="shape=image;imageAspect=0;aspect=fixed;verticalLabelPosition=bottom;verticalAlign=top;image=data:image/png,iVBORw0KGgoAAAANSUhEUgAAAgQAAAC4CAYAAACclfSxAAAMS2lDQ1BJQ0MgUHJvZmlsZQAASImVVwdYE9kWvlNSIQQIREBK6E0QkRJASggtgPQiiEpIAoQSY0JQsaOLCq5dRLCiqyCKHRCxYVcWxe5aFgsqK+tiwa68GwLosq9873zfnfnnv2f+e86ZO3PnAkBv50ulOagmALmSPFlMsD9rXFIyi9QJUKANEGAOzPkCuZQTFRUOoA2c/27vbkJPaNcclFr/7P+vpiUUyQUAIFEQpwnlglyIDwKANwmksjwAiFLIm0/Nkyrxaoh1ZDBAiKuUOEOFm5Q4TYWv9PnExXAhfgIAWZ3Pl2UAoNENeVa+IAPq0GG2wEkiFEsg9oPYJzd3shDiuRDbQB84Jl2pz077QSfjb5ppg5p8fsYgVuXSZ+QAsVyaw5/+f5bjf1tujmJgDGvY1DNlITHKnGHdnmRPDlNidYg/SNIiIiHWBgDFxcI+fyVmZipC4lX+qI1AzoU1A0yIx8hzYnn9fIyQHxAGsSHE6ZKciPB+n8J0cZDSB9YPLRPn8eIg1oO4SiQPjO33OSGbHDMw7s10GZfTzz/ny/piUOp/U2THc1T6mHamiNevjzkWZMYlQkyFOCBfnBABsQbEEfLs2LB+n5SCTG7EgI9MEaPMxQJimUgS7K/Sx0rTZUEx/f47c+UDuWMnMsW8iH58NS8zLkRVK+yJgN8XP8wF6xZJOPEDOiL5uPCBXISigEBV7jhZJImPVfG4njTPP0Z1L24nzYnq98f9RTnBSt4M4jh5fuzAvfl5cHKq9PEiaV5UnCpOvDyLHxqligffC8IBFwQAFlDAlgYmgywgbu2q74JXqp4gwAcykAFEwKGfGbgjsa9HAo+xoAD8CZEIyAfv8+/rFYF8yH8dwio58SCnOjqA9P4+pUo2eApxLggDOfBa0ackGYwgATyBjPgfEfFhE8AccmBT9v97foD9znAgE97PKAZGZNEHPImBxABiCDGIaIsb4D64Fx4Oj36wOeNs3GMgj+/+hKeENsIjwg1CO+HOJHGhbEiUY0E71A/qr0/aj/XBraCmK+6Pe0N1qIwzcQPggLvAcTi4LxzZFbLc/riVVWEN0f5bBj88oX4/ihMFpQyj+FFsht6pYafhOqiirPWP9VHFmjZYb+5gz9DxuT9UXwjPYUM9sUXYAewcdhK7gDVh9YCFHccasBbsqBIPzrgnfTNuYLSYvniyoc7QOfP9ySorKXeqcep0+qLqyxNNy1O+jNzJ0ukycUZmHosDVwwRiycROI5gOTs5uwKgXH9Un7c30X3rCsJs+c7N/x0A7+O9vb1HvnOhxwHY5w4/CYe/czZsuLSoAXD+sEAhy1dxuPJAgF8OOnz79IExXN1sYD7OwA14AT8QCEJBJIgDSWAijD4TznMZmApmgnmgCJSA5WANKAebwFZQBXaD/aAeNIGT4Cy4BK6AG+AunD0d4AXoBu/AZwRBSAgNYSD6iAliidgjzggb8UECkXAkBklCUpEMRIIokJnIfKQEWYmUI1uQamQfchg5iVxA2pA7yEOkE3mNfEIxVB3VQY1QK3QkykY5aBgah05AM9ApaAG6AF2KlqGV6C60Dj2JXkJvoO3oC7QHA5gaxsRMMQeMjXGxSCwZS8dk2GysGCvFKrFarBE+52tYO9aFfcSJOANn4Q5wBofg8bgAn4LPxpfg5XgVXoefxq/hD/Fu/BuBRjAk2BM8CTzCOEIGYSqhiFBK2E44RDgD36UOwjsikcgkWhPd4buYRMwiziAuIW4g7iGeILYRHxN7SCSSPsme5E2KJPFJeaQi0jrSLtJx0lVSB+kDWY1sQnYmB5GTyRJyIbmUvJN8jHyV/Iz8maJJsaR4UiIpQsp0yjLKNkoj5TKlg/KZqkW1pnpT46hZ1HnUMmot9Qz1HvWNmpqamZqHWrSaWG2uWpnaXrXzag/VPqprq9upc9VT1BXqS9V3qJ9Qv6P+hkajWdH8aMm0PNpSWjXtFO0B7YMGQ8NRg6ch1JijUaFRp3FV4yWdQrekc+gT6QX0UvoB+mV6lyZF00qTq8nXnK1ZoXlY85ZmjxZDa5RWpFau1hKtnVoXtJ5rk7SttAO1hdoLtLdqn9J+zMAY5gwuQ8CYz9jGOMPo0CHqWOvwdLJ0SnR267TqdOtq67roJuhO063QParbzsSYVkweM4e5jLmfeZP5aZjRMM4w0bDFw2qHXR32Xm+4np+eSK9Yb4/eDb1P+iz9QP1s/RX69fr3DXADO4Nog6kGGw3OGHQN1xnuNVwwvHj4/uG/GaKGdoYxhjMMtxq2GPYYGRsFG0mN1hmdMuoyZhr7GWcZrzY+ZtxpwjDxMRGbrDY5bvIHS5fFYeWwylinWd2mhqYhpgrTLaatpp/NrM3izQrN9pjdN6eas83TzVebN5t3W5hYjLWYaVFj8ZslxZJtmWm51vKc5Xsra6tEq4VW9VbPrfWsedYF1jXW92xoNr42U2wqba7bEm3Zttm2G2yv2KF2rnaZdhV2l+1Rezd7sf0G+7YRhBEeIyQjKkfcclB34DjkO9Q4PHRkOoY7FjrWO74caTEyeeSKkedGfnNydcpx2uZ0d5T2qNBRhaMaR712tnMWOFc4Xx9NGx00es7ohtGvXOxdRC4bXW67MlzHui50bXb96ubuJnOrdet0t3BPdV/vfoutw45iL2Gf9yB4+HvM8Wjy+Ojp5pnnud/zLy8Hr2yvnV7Px1iPEY3ZNuaxt5k333uLd7sPyyfVZ7NPu6+pL9+30veRn7mf0G+73zOOLSeLs4vz0t/JX+Z/yP8915M7i3siAAsIDigOaA3UDowPLA98EGQWlBFUE9Qd7Bo8I/hECCEkLGRFyC2eEU/Aq+Z1h7qHzgo9HaYeFhtWHvYo3C5cFt44Fh0bOnbV2HsRlhGSiPpIEMmLXBV5P8o6akrUkWhidFR0RfTTmFExM2POxTJiJ8XujH0X5x+3LO5uvE28Ir45gZ6QklCd8D4xIHFlYvu4keNmjbuUZJAkTmpIJiUnJG9P7hkfOH7N+I4U15SilJsTrCdMm3BhosHEnIlHJ9En8ScdSCWkJqbuTP3Cj+RX8nvSeGnr07oFXMFawQuhn3C1sFPkLVopepbunb4y/XmGd8aqjM5M38zSzC4xV1wufpUVkrUp6312ZPaO7N6cxJw9ueTc1NzDEm1JtuT0ZOPJ0ya3Se2lRdL2KZ5T1kzploXJtssR+QR5Q54O/NFvUdgoflI8zPfJr8j/MDVh6oFpWtMk01qm201fPP1ZQVDBLzPwGYIZzTNNZ86b+XAWZ9aW2cjstNnNc8znLJjTMTd4btU86rzseb8WOhWuLHw7P3F+4wKjBXMXPP4p+KeaIo0iWdGthV4LNy3CF4kXtS4evXjd4m/FwuKLJU4lpSVflgiWXPx51M9lP/cuTV/ausxt2cblxOWS5TdX+K6oWqm1smDl41VjV9WtZq0uXv12zaQ1F0pdSjetpa5VrG0vCy9rWGexbvm6L+WZ5Tcq/Cv2rDdcv3j9+w3CDVc3+m2s3WS0qWTTp83izbe3BG+pq7SqLN1K3Jq/9em2hG3nfmH/Ur3dYHvJ9q87JDvaq2KqTle7V1fvNNy5rAatUdR07krZdWV3wO6GWofaLXuYe0r2gr2KvX/sS913c3/Y/uYD7AO1By0Prj/EOFRch9RNr+uuz6xvb0hqaDsceri50avx0BHHIzuaTJsqjuoeXXaMemzBsd7jBcd7TkhPdJ3MOPm4eVLz3VPjTl0/HX269UzYmfNng86eOsc5d/y89/mmC54XDl9kX6y/5HaprsW15dCvrr8eanVrrbvsfrnhiseVxrYxbceu+l49eS3g2tnrvOuXbkTcaLsZf/P2rZRb7beFt5/fybnz6rf83z7fnXuPcK/4vub90geGDyp/t/19T7tb+9GHAQ9bHsU+uvtY8PjFE/mTLx0LntKelj4zeVb93Pl5U2dQ55U/xv/R8UL64nNX0Z9af65/afPy4F9+f7V0j+vueCV71ft6yRv9Nzveurxt7onqefAu993n98Uf9D9UfWR/PPcp8dOzz1O/kL6UfbX92vgt7Nu93tzeXilfxu/7FcCAcmuTDsDrHQDQkgBgwH0jdbxqf9hniGpP24fAf8KqPWSfuQFQC//po7vg380tAPZuA8AK6tNTAIiiARDnAdDRowfbwF6ub9+pNCLcG2yO/pqWmwb+jan2pD/EPfQMlKouYOj5X0SZgxBaJfeFAAAAimVYSWZNTQAqAAAACAAEARoABQAAAAEAAAA+ARsABQAAAAEAAABGASgAAwAAAAEAAgAAh2kABAAAAAEAAABOAAAAAAAAAJAAAAABAAAAkAAAAAEAA5KGAAcAAAASAAAAeKACAAQAAAABAAACBKADAAQAAAABAAAAuAAAAABBU0NJSQAAAFNjcmVlbnNob3Ss3t/pAAAACXBIWXMAABYlAAAWJQFJUiTwAAAB1mlUWHRYTUw6Y29tLmFkb2JlLnhtcAAAAAAAPHg6eG1wbWV0YSB4bWxuczp4PSJhZG9iZTpuczptZXRhLyIgeDp4bXB0az0iWE1QIENvcmUgNi4wLjAiPgogICA8cmRmOlJERiB4bWxuczpyZGY9Imh0dHA6Ly93d3cudzMub3JnLzE5OTkvMDIvMjItcmRmLXN5bnRheC1ucyMiPgogICAgICA8cmRmOkRlc2NyaXB0aW9uIHJkZjphYm91dD0iIgogICAgICAgICAgICB4bWxuczpleGlmPSJodHRwOi8vbnMuYWRvYmUuY29tL2V4aWYvMS4wLyI+CiAgICAgICAgIDxleGlmOlBpeGVsWURpbWVuc2lvbj4xODQ8L2V4aWY6UGl4ZWxZRGltZW5zaW9uPgogICAgICAgICA8ZXhpZjpQaXhlbFhEaW1lbnNpb24+NTE2PC9leGlmOlBpeGVsWERpbWVuc2lvbj4KICAgICAgICAgPGV4aWY6VXNlckNvbW1lbnQ+U2NyZWVuc2hvdDwvZXhpZjpVc2VyQ29tbWVudD4KICAgICAgPC9yZGY6RGVzY3JpcHRpb24+CiAgIDwvcmRmOlJERj4KPC94OnhtcG1ldGE+CvpjVtcAAAAcaURPVAAAAAIAAAAAAAAAXAAAACgAAABcAAAAXAAAGtpbrHJ0AAAapklEQVR4Aeydy+8lx1XHezaW9zH7gAIKCY8FxDNRAImwA5xApCDHCTHBxMTzDggUQcRLIIKJsT3jMQSC5EecwD+AYmMrJiDFM0bKwoggQNhsg8LCCy+I5OF37uRzf3XPr+vUo7vu7cdpaeZ7T1WdU6e+3b9vVdfte++pN9988+apU6c6jps3b3Z9NuWOt/gJeYA74U3KOUpt/BydAWdgGQygE4ym1sbP0fWXa6kFnjq6wI5nsBY9eExnwGAAgYs10fW1Nn5rRLgtXaCWtqcfR2fAGZgHA+gh2Z5ih4CKKeI22ZHvwLXg0Y+jM+AMzIMB9IpsW9nEXSPCrdbLUps4oPan3PFwDPgOweG4n0TPCBzJ1Nr4OfqWJteSozPgDNgMoJe0qrXxG4rbHYJUQroj3V7Xr8mGC73iLbWJA2p/yh2dAWdgHgygg2TbyibuGhFutV6W2sQBtT/lS0bfIVjy2V3A2BA4hlJr4+foOxhcS47OgDOwy8B2h2CIUBKSFZVGXV9r4+foDDgDy2AA3WE0tTZ+jr7g41pyLGfAdwjKOdurBwJHp61s4q4R4ZaFbCubuI7OgDMwDwbQQ7JtZRP30DjKDgFCOlXkZMby0/W1Nn6OzoAzsAwGEGhGU2vj5+g7GFxLU0TfIZjiWZlRTggcKbeyibtGhFsWtK1s4jo6A87APBhAD8l2qL2XHQKSHSpoxHF0BpyBZTAwVMDw1wg7unyNNlyMrb86Hv04zpcB3yGY+LlDwGJp6vpaG781ItwicBp1fa2Nn6Mz4AwsgwH0ktHU2vgdGveyQ6AFdmo2J5O8am38HJ0BZ2AZDCDQjKbWxg/U8ShfI8LF2Pqr49GPY5wB3yGIc+M1GQwgYLGmur7Wxm+NCLcInEZdX2vj5+gMOAPLYAC9ZDQpe7NDQGOEppVNXEdnwBmYBwNaQHTWur7Wxm+NCKfor0ZdX2vj5+gMxBjwHYIYMyOVI3CEa2UTd40ItwhprY0fqONR7ugMOAPzYAA9JNtWNnHnjrN4hoCTqQV6bJt+HJ0BZ2AeDCDAsWx1fa2N3xoRbtFbjbq+1sbP8XAM+A7B4bifRM8IHMm0som7RoRbhLTWxg/U8Sh3dAacgXkwgB6SbSubuCnM2iEgWS1ApTZxHJ0BZ2AZDCAwjKbWxs/Rv8mPa8lx/wz4DkFjzhG4WDe6vtbGb40It6UL1NL29OPoDDgD82AAPYxlq+trbfzmjlk7BAjnVJGTTX61Nn6OzoAzsAwGEGhGU2vj5+g7GFxLS0TfIVjiWS0YEwIXc9H1tTZ+a0S4HbpgTfnTj6Mz4AzMgwH0MJatrq+18Uth0fcQxJL2cmfAGZgmAwgA2bWyibtGhNvUgm1oPf04OgOtGPAdggSzCBzNam38QB2P8jUiXIwtmDoe/Tg6A87APBhAD8m21sYP1PEoXyPChejlXp4hCDsUwjm0YA+1ievoDDgD82AAASbbVjZx14hwO1RfU/704zhfBnyHYL7nbpM5Ascwam38QB2P8jUiXKQEMVVPHFC3p9zRGXAG5sEAeki2tTZ+oI5HeWv0Zwhg3tEZWCEDCAxDr7Xxc/Sn8LmWHOfHgO8QJM4ZAkezVjZx14hwq++Yx7bpx9EZcAbmwQB6SLatbOKuEeFW9PYgzxAg9GCYkJwQjtJ6/BydAWdgGQwg0Iym1sbP0XcwuJYcTzLgOwQnOZlVCQJH0q1s4q4R4bZ0gVrann4cnQFnYB4MoIdk28ombmvceYaAQTk6A87ANBhAAMimlU3cNSLcli7gStvTj6MzMFUGFr9DgMBxAmpt/Bx9y5FrydEZcAZsBtBLWtXa+IE6HuVrRLgoXaDq9hIn6xmCsTrUCWibfhydAWdgHgwgwGTbyibuGhFutV6ObdOP43oZWPwOwdRPLQJHnrU2fo6+g8G15OgMOAM2A+glrWpt/EAdj/Kpoz9DwJlzdAYmyAACEktN19fa+K0R4ZY7bo26vtbGz9EZmCoDi98hQOA4Aa1s4q4R4RYhbWUT19EZcAbmwQB6SLatbOKuEeF2DP2teoaAjsGxEiKOozPgDMyDAQQ4lq2ur7XxWyPCLXqrUdfX2vg5rpeBxe8QTP3UInDk2com7hoRbhHSVjZxHZ0BZ2AeDKCHZNvKJu7U0Z8h4EpwdAYaMIAAELqVTdw1ItwOXfARB9TxKHd0BpbKwOR3CBA4TkCtjZ+jP4XPteToDDgDNgPoJa1qbfwcp62/OzsEekWsbS4KMFVPO0dnwBmYJgMINNm1som7RoRbrZelNnFA7U+5ozNQy8DkdwhqB7YvPwSO/mpt/BynvYLmPDs6A87A4RlAL8mk1sZv7bizQwCpjs6AMzAOAwhMLJqur7XxWyPCrb5jHtumH0dnYKkMTH6HAIHjBNTa+IE6HuVrRLgYKqDEAXU8yh2dAWdgHgygh2TbyibuGhFutV6W2sQBtT/lFu7sEOgApbbVkdc5A87A9BhAgGOZ6fpaG781ItyW6mlpe/pxdAZqGZj8DkHtwPblh8DRX62NH6jjUb5GhItSgdTtiQOm6mnn6Aw4A9NkAD0ku1Y2cZeOOzsEkOp4zMAjj13prr98o3vpxvXjQvXqzJ2nNyWXzl3oeK2auDlTBhAA0q+18QN1PMrXiHChF2ilNnFA7U+5ozPgDPQzMHiHAAHrD991ur7Wxm+fKAuBuz/64djQesu/9OQXunefPrMd9xj50hECp1HX19r4OToDzsAyGEB/GE2tjd8aEe607mLr+lobv0Oi7xAY7H/o3o+YOwMx11e/8R+xKi93BkZlAIEmaK2NH6jjUb5GhIuhEwBxQB2Pckdn4FAMDN4hOFTiuf0iYLH2uj60H7l6pXvk2pWYa7T88rmL3aXzFzr+4JeOEBEbp66vtfFzdAacgWUwEOqtjKjWxm+NyJUwhv76DgFs9qA8P/Dotas9Neki3yVIczSHFggMubayibtGhFsErZVNXEdnwBnoZ6D5DgECR/e1Nn77xoevPlq1KJAHDD954dJ2xdsyb7gdKqjEcXQGnIFlMIDuMJpaGz9Qx6N8jQgXY+uvjkc/LdF3CDLY/e7v/96MViebyAOG/qmDk7x4yXgMIMBEbGUTd40It1qgx7bpx9EZOBQDzXcIDjWw3H7ZAZD3/S9fuLi9o8dfBPDRx676swRHPCCApQiX+NXa+Dk6A87AMhhggcloam38QB2P8jUiXOTo76p3COS7BeSTBByyzX/5/EXMHazdJbBi7nTgRhMGEACC19r4OZ5cGMJtjuAIfxy6PeWOzoAzcBgGNgsC+cOMHQgg9bU2flPCvkleHgZEqEJkJwEeSpAHDImH79g2cR2dAWdgHgygh7FsdX2tjd8aEW7RW426vtbGb8642h2C2CcIrDv6mE/qArBipny9ftkMINCMstbGz9F3MLiWHJ2BUgYm/wwBAhcbmK7PsVPfQPjav/3n9lkC4gmm/GI5Snls5yGMr1eu+7LJm/5a2cR1dAacgXkwgD7FstX1tTZ+a0S4RX816vpaGz8LV7lDkPoGQuuO3ncJrMtpenUIDJm1som7RoRbhKzWxg/U8Sh3dAacgTYMJHcIEDi6r7XxOzR+7fpLOw8SMi6NsiiIfY9A37MH2r/P/punnulOv+vOE88o0FYLYKlNHEdnwBlYBgPoJaOptfFz9LeUuJb6cHU7BKndAUiS7w+Q7xHoO3yXoI8VL6thAIHGt5VN3DUi3JYusHV74oCpeto5OgNzYSC5QzD1gSBw5GnZ8jHDkl8vtH6T4K1vfxtdFqG184DATA0ZIHnV2viVoizAUocs4PxLoFIseb0zMC4Dlt5KT7n1tHM87A7GqnYISrf6W+wSyB8JH0OU137YDMgPTD36ePr3JDhXCApRsR1PCs3QBZ72h3NHZ8AZmCcDmwWB/GFzIJzapnyuWPs9AuHkrQWw9hsMeWhRx4Nzx2MGxniL5ziav3IGxmUAPSRqK5u4a0S41Xo5tk0/a8ZV7BDobyTMPeHcdVrtS3cdiBUuNChz3GWg9Lwd4rcjEGgyr7XxGwvl4VkEU+O7T5/ZbuWO1V/LOHDLOGpt/BydAWegn4HmzxAgFHTfyiZuH+beZZIjaD1DQD+1Ow9jPktAvkMFM+VPP/vC0oc3cxZw+8r90P1Y1/whFk6H5mOt/aNTjL+VTdw1Itym9HNoPf20xMXvEJTeZUJ2yeRSu0vgwgzb/VjD63/9679v7oyJGBOoVH3Mby7lH/roR7qXXr7OMHdQrrvw469Uji1YOh79ODoDzsA0GVj8MwTyqQJZFJQeIppsreKLwGksvZMlHjsQ2I7HDNRy6ousWxz6DsHxtXTIVywgyaHWxs/x5MOxcIsu19r4rRkXvUNQO6mU7A5w8VgCTJs+5AHDvro1l1nnTiZ94bvvqDl3fXFyyxBo2tfa+IE6HuW5WLJDgJBOFeGC/Gpt/EAdj3JHZ2CtDOz9GQJNNAJHea2NX4g1W86SR+wbBRGQPqx9lkD6i/12Ql8/4fiolxhyYGu8VXtcX2vjtw+MnTuZ8GURFVsQSG7+wGa34Se2M+a7KPu4gufRB3pCtrU2fo7z3sFY7A6BdYfJxd+HsTvMN954o3vxq//Qvfrfr3U/9AM/2P34e37shHttn3PeJUAATpDxnQJdn2M/eu1qJ//6jktnL3SXL1zslnQHrBdw2oYHXY6t68W+595fjD5D8MUnnt58iZP2J46jM+AMLIOBHL0VHeDYPkOA4xJw6K8Sbsk5Ikr4+JOH/rT7i8//JcVb/MPf/f3uw3ffs7XlRezOdqdRj+F3tcekWAsr7m6tNrFF3XEPy39lvYUFh8tnIT1C9I6WrWzirhHhVi9Ax7bpx7GegUXuEFhiaFHVd6f+8bOf6J7/ygtRt1+7eLm78MC5bb01UW0b9bzo67un2SqKrEUVC6fUp0eY9BDgGHG6vtbGbyq4zx0UuEXgNer6Whs/R2fAGWjDQPIZAgSO7lvZxB2Kub9myHhAuauUZwfC/v/+hee7+88/QJMo3vjHr3Xfdccd2/fwrQktGuSogmcXaIOw5tq0A7U/5VNGa0GlF03Wwo8FwZTH2jI356Ylu/uLjR7RYyubuGtEuNV6ObZNP1PGxe0QWEJonYi+CeSBS+e7Lz/3rOW2qfvt3/xU9ysfu2/bzprUto16XugJr6fJ7IoQGBJP2dZvF8g5Cj8/f88vHb1PHvlI6Zl3Hf1a5VNf2Fng8Qe+NIRbxiW2P0MAK47OwHoZSOmtrl/UMwS1vy3Ae86hoMol9MOnf6R7/fXXk1fTT/3ke7vPP/65nXa+KNihI9uwdld4u4BguW8b0H5NaC2M+xa/rblh4RZ7WFQWenJcPn+xdSo78bUgUil/v5vjZtdd/+cbFB/9fF/Xnb7zzs1DmaIb2j9mU16LsvMpz0Zdv3GUizwDdpRHiKd/9Ii/o3K5qUDH9o1ybnV+F8+e3/4KaSwfyJV6uSGQQ8bK+C6eO78pi30vzKZypP9kDpFj039PTMlFzvtSj0XtEFiTiXUCYwJ5+ife033zf75puW7qfu6u93cPP/jZnXa1CwIJoie+ncALNizOYrsn1sTHQs+iDIGmjbZFiK88/hjVx0J8VCKTWK0Ab+MqYWfCicW1/BBQQSbg48SPX20Eraff0J8JRwQdIY4JulW+yffaY9FPPBxntfuKT5PI+Rh6yG5J7Pjik0/vVMmEkPPrmuIku1AtJwg5h1cquZP8Lp2/IFB9xHjbXPdB7BRnOTylYsggJI4+X9WDCxylb1kAxL7ZM2i6fZkzpm3jGb0ofoZAj00LaK2NXy3WfiOhiKN+dgCB+/Tv/U73zN9+SQ/5hP3QZx7sPvD+nz+xMpcL7ZFr37nTOOEVL2DyIw9aDrWJM1W0JvfYos3yyVkQpLiwFilD4lu7G1Zcyy81lpr6GO+pWJKn3DEKDjn4WxgSw7pRYPE9hFfrfNXmbV3XuTGFO1nYycd0OdBXbVMe4ve84/totoMSV/7JJCp55h74oWOCsmCUt/5KDrkmw7cOw3hh/qlyuT5jO1a5+YQLA/rDV9uUTxkXsUMw5I8ZQeg7Sa/8yyvd+z74gb6qbdntt9/efePrr2xt/cISI902tK28wnZDX/MHRJxWNnFjmBIGfqNA+6f85DP3Q+5wrWcaZCKQ+PzhxxBuqRdbrtmYEHInFLYXH7FT45V2Yx58Z0FJzJy7vZJ48FHiE7aNTWzSRq6rMfIdmiP5WtcFbUpRdltqdgtivEk8edskdv1a+YW5DOE9jGP1F6sb0ndfzNp80LO+mFKm62tt/FI4i2cIIKtPIGWAtavpnN8S+MxnH+w+99d/RQon8MpDD3d3/fTPniinwLrDpE0fymp63++n9uWxrzKLpxQX1vkfevdm5TUktrWIteJafi3OVekOgXUuhubXlwsCR+w+OzaxiY8seGomNvoLse8OmHxycIw71jCf8LVMWLJTkJMHOhvjTWKVbrGHucgiTI5Y/LBt7PWQBdjYiwFyrF0U4D8FnP0OQa1AWqKrT8xzRx8/fOLpJzd3Z9S972fu6u7/5fu6d77jnRRFsXaXoE8Ao53MvMLiKOQBQWO4Yougy3UQO8Ldlj5/BLAPx9gh6Itr3enLtRnbebD8YuMfUh7uEDAO4mk7dR7wA0XUS963FT8mE2LkoDXxpHJI1ev+ayeF0klK8pKjhL/S3GK8xTiJlfdxZC0oSuKU7nxYn74J85Qc5G0JyVOOXJ5LOQ77nMLr7Q4ByeQKpm6P376x9tkBmWRKt5K/9b/f6l597dZXF992223brWK40AKJbd1l4tuHOTsYfX5zK0vxE07ofWNLLQrDBUWfv1Vm5VayqNR9WDlbcS0/3ccYdi53Fk/kIeOSu2g55HV4iL8cqfd0LW7CeOFra7EZtpPX5Kd354R3+ZfKT2KE1yt6KOVyxOycHGXsPOR5K9qteJvJ9fpRbo/3f903bQVlgZere7EFQRhPJk6ZlMP39CUfWeDkTqISTybSM6dvTcLoZs6OSbhAxI/8tJ0TL5zQtb+c/5yHPMOcyGUuOOsdghwR6jsRNaLSF6ekrDbX1HZ5SQ41bWMCRqzcetr1ofWHKn+gOVud1jfzyfmO3XH35YMQCB5kh+BIZOVpavKA65RNO0HrTii86w99al/n3N2GQmv1M2Ys+smZ2KRtTo4yKaTeYsiJQ26C1rmiXe45GzNWijdZDFhP/efkIuOz+EpdD7m8pM6blQPnAEzlVBKLmDFEn6ivtfFL4XaHINXwkPWQoQUxZ1WNb4jc9eh4YZuxX8sFWfJEbth/eMcRli/ltXUeOVepsabeu67l0FrIDVlYWtfDkLjwZPGRyymxUmidP/EtXdRa3JAL5xNdorzPTk1sYY59/ugEaC1gJVbJAtRacG5iHU26pV+wNVZ+Kd7kHAhfHPCDncqD8VmLCmljLSxyJ18rRmphw3hCTC0K5rpLMNsdAkvwwhOnX5eKk/YfYluTixX3kDlbeY1Rl+IE4Y/1hYCnJhEmQdoTDzuGlmCXCL+Obz0LMCQu/Vg7JsJFuMWLkMcQrqgPbYsfaZcr2MQE5Xxad+IlcVMT2yEnBGuiEi5qJ5ZU3Jw7a4u3XM6sGDK+nDysyTfnOkhdSy04zslLxj+1Y7tDQGIISqmN3z5Q3qOSZwdqDplgELaxkDyIZ9lvffvbqC7C1MRYFGxCja0FQelCyFok1t51W/nVxhT6rQXMkLicWosLFke0HYKp3YEh1601Bsk5N3aLHK3rQnKDY/RQyuQI7VQMuf7ln+gKR+gfxqMctBac4icTemrnwZrMZSLPeRbBWpiWLHxj5zCceGP6ay2OwgVJzB/uNVoLFWlbu9DQ/ezTnuUOQUooYgSWTjCxOEPKUyIQix3LHQHAr5VN3LEx9ocu4ym9k0095V4aTwTCugNG0OA+JShhvXXXknv3Rb99mCuCfb4lZdakEYp1SUzaWhxJm1DM8elDK8chXFtxc3JrPaFY10DOuK3x5U52Vg4l10csl32No++6krJYXlInHKGXYstRa+PXGrc7BC07ukXFrS9WkX44QoGUspQtbaw7K6mPHUPvuv7v29/uXvzqi9tPGcjquPawJkErJncdVps51aUWR7l3gIw5dW3U8GflOOSasnIdEhcurEVzDQ/EDdHiRtrlnD90h7jarr3DDONZop17p0teIQ6Na/nLZJnzMG2YD/oJyk6qXAexgwUy9fhhx/LLmYSJYS16xlgQSD/W4sRaVJaMg/FoHGvBo+Meyp7dDoEldBaJQ0Twz6480l3982snwv/xH/xRd/cHf+FEeaogJaQx/9guQaz9FMoRLHIJbYsHxhq2lxgxm/LaCQR/jTk7BAhpCVpbuuw85MaDW9qLbQkVd69he/FJ2dImPCyxH0Nspa8x+ohNbBIfLuR16WFxnDPZtcorHMeQPmK+JefWOn8l3MdykbFaC4Kh5yjksu+1Nb6ca6Av5phl6BkxU/ZedggQmqEo5Nf8NgB3XLH+IYv60P7V82e7Z59/jqIT+Buf/PXu7P2fOFGeKrAmQ8uXidJqM5c6a6dEzlnNIXcE1lG6MLTOE9eV1V+sbgk7BNbifKzr1OJJuM3ZhbCus5S/JaA548dfY2pcQ3Yu0DFBa4Es50j+he3DPGOTcMmC1VpQp3YoyEvOcywXqatdEMjCZuhhfddCycJpaB5j+c9mhyD1B2QRUjoJEOv5r7zQffxserJ/+Z9e6u54y1twy0ZLqKwgoYjxBxxrr+trbfzGQksoYmMZo1z+SFMPUyFEglaeCCN54Zdjy/Uce4p+DCGx7oxK7swYSx9aIj3W3ZHFk+SUMxYrT2sy6RtzWGZxnBq/dWcpfQzJKzfH1HUW4y01trB/a5w5545YsVyk3uLKOkfEboXC7zNPPJX1UCg5oK/aprw17mWHgMGVCKb4hO2t1Tjx+3DIncq5yxe6v3v2y31hd8o+/anf6u6792M7ZTmGdfdp+Q8ZkxV3n3W153NojqV39dY5Ko0V5m4tcIfEpQ+L39oFMrFBa0Gbe40icMTUtvXWivhwJx3zl3ipyQSdKUXrIVaZNK1nAKyFpoxFJrnSfPraWzsEqQVtjDcWBPQH93249gVB6jsW+jg7ZNn/AwAA//8wF0UuAAAbKklEQVTtnW/MLVV1xud+gE98sUlp7Cdp2qYFqTQFLq2p1WKgmGAlEhUKiIpS+XcpoNFaGwkFqzUV+dcajYXL1Uu1MbVpNDTph6ai94JYtUVBLRdTk1qMTex3uD3rvfd3mLPe2WvvWTNzzsyZNeTynLX3Xmuv/cycZ/beZ95z9jz//PNHq5Efhx49XF3y5stcWR75zvdcfuJ0xt4zq5/+30+z/q9+1e9Wn7jv49l2TQ1O+dVfairOlnUZVzZ4jw2OHj1a7dmzZyVil/O5EshpHHzgQLX3rLN38iK/FN55913Vx+67u7Gnc87eW33m/geL4uj4Xz18qLr0yst7iUsQ4Zl+LrnisurQY4epWkHJWXKnPZU5m3bgL5z6y7zchfSxq8JR0LUfy//pb3/XkdExl0vffHmS433XXF/tu+76ZOyP3XN3+ro6a3FdPfBg0rdNRZd+UrzlxlbPz+q/zTWSykX6ss6h5VfPc6jXVm5D9dkmLnqBzx6ZECAEY0WZDMhNpO3x0P5PFwk/cRk/9t5X/Fb17I9/jJnE15x/QXXvnXdlBbYpwJ33LG449zbfcJraU7bv2uurG6+7AXNS6B1zX4OUm6FMCkoOK9c2cXRf1qSoS1z6sd4zMnbpo+thTWb76kNy7NqP5Z+bWGvBrNsWx7w/6+1lLNi568o70SQ+2GVCm7qZytjkH3ppodU/E3PhRQ7iHLNW7VQu0pabbpO/de7pZ0gktyH76DP2zoSgz4B9x7KE0+qrD1H94z/9k+rg5/7W6man7i/u+PPq4oten23X1EDeuLJS9Ex4eEPJG4EDIdA25WNA681N3kOjvFGbBET44ZB6S9DkGhPh9hxyvpM7BD2sEK3Va5uVmTU26zy2WUVafVg8iV/JWKw8uwi2xXFu/NbKWcbVJS/x57D6OSdznaV4y42NvgWt/kvOHbFSuUi9xVXuHMlOYfWCfC5mbIuAPdqlO5Fj0GXRu6IdAk5KiYBqQa3bxGmD3hleHyuUb3zrm9VFb7zYTPeEE06ovvutb5ttcpXWasHyZRVitRlbXW6sfaxcZcy5CVbp9WHl22XSKfmlPgbrEpfzba1eS8dOrBRa702uTYSOGCmbco3WRysSsz6xQ5805m4mun2pbU3k5aZ54/U3LHcEuowL7sirjW19dJS7sad4y/mRn+DYJwTWxzr1cczl9ah3CCwxtk5QH4JK/Ns/9MHqk/d/CnMXfvTDH6led+Hv7ypvW+AdK8Lbtr/S9ggZ7bva1opb+igReITRwtyNRFZHB/cfSAo247TyletMVjlWHsTRaMY9vnIjLtznbNoJ5lZGfQih1Udu9VnP1Xpt3VDEz1odEjd1Yyv1J45Ga/y5m2YfOx86nybbGnsux5Rvzq+eh3X+xrBD0Mf7oD7evl+jG8QdyiZu0Q4BQrROFEFPraAgJ4WsgMiXdjmbdhq/+PCXqvsf3F899vjXllUXnP971TveelV1xq+9bFnW9YW14rJi5z4HtXzXXWeNse/JjbVKlnGX8GZN1LpMPK3cusTlfFrx++LZ6qOPMchYuvIvQpe6sUl8JqDyWg6E8Zj1gk15HbvsEOTykpvlb+49Z5lPvV90rARz7ze5FlJxUryJT90ProhTt62Jr+j0zpY9DgamchEXa1JoTUj6mrQaaU+uarQ7BJbYWCz3JXZNffz3j35UPfODZ6rTT3tpddJJJzU1aV3GG10cLfGzAtfHXI8nPthjQHl40nqAUgsNAuNFS7CFGy1I9CN1cohtCZq0scRI6lOHtbrsQ6is+G1WeKn8pXwdq1zrRlA6DiuG9/zJ+LtybPn3cQ1YN0PJPzf2FG+lvEsfVg7r2CHIXaP/+cRTO+9zybXpQDep89r4jR2Ldgggo0kwZYAcuXragbo95dbnq7Rpwtyq5MtfeaQ68syR6vSXnt7ryr4pl6YyGdeTTz1VnXbqqdVZv3FmUxPziepGh+OFJatdy38ddbkJT99jyF1HuetFOMnF8OZsrdxK8sqdL4vrPuLTf24cfKRCewSxxLbGIP5M6NCRFKZubBJDboopv1y5NeGUm6b1DIHwYPnXxyev5SCfY1betsYtEw4+MiOexpT/lCYEMqbUOKSuzVikvT6sSV3X2Lqvddij3CHw7g7wUYEm7q8+8fHqw3/5EV1cffRDi8//X9v98/9dgVXB/Qf2V7fefpsqrarbP3Bbdekb37RSnhPBlcY1o75LUCvu/LKNgEtnVnvr5lEioAhiG7QeqpJ8c1uzuWcRPHnndkpYHTJOyVOONra1MpNYudWhtCk5LEEU/zarQN2fJeTStnQMVpzSGDo3sa2xl9wMZLIpk4LUwXWQqrfKc+e/JL8UbyW+5Gbl0ebaSOUi/eTOoZVDiT9j0Zg7f23Gp2Njaz2lHNT1Xhu/oh0ChGgd6H12QFY98r0DMjAOyXffLTdVX/jHf6BoF77nlndXV7/t7bvKpYDxNlYWFspEQCYEqeOdb7+6evdNt6xUeycF3tXqSucDGbkxDTWhyU0uS/q1JjJCV1vec/H6WMGvi+/cDop3LH3lL3qQu5nI+5wDYSyxrWurdKLYdcJKvhpz15jcRNG3FKZ40x/twRVx6rb1kRs7PLTXWI+XykV8uk4I2kxw6jkONdGo97Hu16PbIchdyCmCmnYH/vWRL1dXXPWWlMuy/PGvPFr9zItetLTbvOCNiE/d/vcn/qN67cUXUZXEf/7iw9UpLzll+QbNrSBTgfQblTfUGNASBhmPJVCMl3G0sXMr/JJVWO6N30ZQcrFkbCU5wYGFloj22Y+1UpZ+2vAj7Us4yt0EJA6HxUObOMQDrXGXjjm3ypS+SmNJW4l31733JL9BsU28FG9t8rHOZZsVdCoXGU/9HNb1V+qwrXMl7W645rqdL3qjvZTJga1RJqx33XfPsUYN/98rH8ksvm1S+43dXpkQ5AS3Ydy9FuVWBanOUquQG991s7k7QLz3v/d91VuvuBKzN7z1jj9b/HXCA9l41/3hNdXN+/5opZ2Xi5IV70pHazKsid7QOVsrORl+02SyTkvJuciNQYRaJnqCuSN1Pef8dH1J3uIj/Un+ciBYO8ZxW55252iqP/zYo9m/CJJJDp9ZozNNmFsxSx6Sq/xr8ie/OuZuJqVxdDvrGQC5afIMAdzhr23rpknbkptwyeSizWQzxVtJLuRtjW2ICQH9arTyoK1wc8O112W/xbMkVpux0f8YcGVCsMmE5GIW4fYcqS3bM19+TvWT//1JNuS5i98i+KTztwis4OddeEH1ve9/32qyU/frLzuj+vxDn9vVzrqJ7mpcK6jzgTBS7bXxA3U8ypswt+PRVuAR1lK0hFvGITdEeQNb8UrOhcTZe+bZ1d6zF99+tjgk3qHDxyYAqd9D2Gmo/tdGtJXrilkiXCsODUap+Jf2JfHkEI6ELyZIsqqVI/X7CzuVi/+V5kN7wdSNTerqq0ux2xzWqrNtnlYscpLrgj/T4xqTusOPPlrJpCzHnbRtM94Ub23GZl0XbW6aqVzajMnKReJwMDEQW65ROeQ6FZ5L3sd1ftDDnSCL/3lt/EAdj/KuuJZnCEg+JbhSn1vFEUOj3ExS3+l/zu+8vPqfZ5/VLrvs8199XvXXd9+7q7xrwWted2H1naeezIaRvzj47IGDu9qVrvC0o8WJbrsOO3du6xOYIfIpmWzmcvCei9R45BzJRKnpEBGSXYs+jq55t7mWuvaVG6/kIv9ERzgQQMvO3UxSupQrtyaaclNghyAXR+pzH20xvi5Y5w/eBDnIEzvFGzc83R6/Olo34XVPCCSvkolXPf+2r/uazLftt6/2o9ghKBHspgHnhPO9739f9dDffbbJdaXsjltvqy55w+rT/isNDIM3Fk3qtvxlg/yFQ+645cabqmuvfudOs7q/FJSsTJviy0qAN+wmMSd0JcLJ+BiHx06JG7FKxMkSN+KUIKKRyon6klglbbqIIOJf0o+06Ysj3V/bPOr+KZ6lTZsVcz2mvLZ49eQrOpj7/F/nUGqXXN86Voq3NmOzroc2OaVykZzr51DrZ5P9B1deUbSbovnI2fK+/fT9+0ehu4y7La5MCHKCmyPEW59bQabi5j77/fo3/q16/SVvSLkvy5/65hPViSeeuLT7evH04jsPzr3gvGy4Q//ySPVzJ5/c2M676mqzsmvsuKfCXP7ryjN3jeUml9CRGw/tUkg/1iSYNqkYnnJv3iL+stLlQGC0Tblg7iMifEsxtbJFr3KYu5nk/FP1pTsEjJM4Odu6ieJbinKTKvlcvCleircxTwiaxtFU1ifHEr8NJ035jKVsZUKwiaS8QlUqmh9Y/NnfA8af/X3wtturN12cnzR4ucmNz/qzR/rMxaCdRtkGR6ipG8omrsbcDse6djJyOxXCT50vPY667b3hcWOTvmRCIDeUpoMdAn0DaWrbpsyzAu0idF1Ft8vNrM5L6sYmbeqry7pPyeu+dwjqfQp3pc8F1P143Qd3Kd7aXBPWNTDEDgHjL0HP+0HHFZ7luY7UbyKgG/gNZRO3K67lGQKErQlf8iu/CFetUHYH+K7vnOPnv/D31c3veddKs1f+9iuqdyy+f6D+BPVKgx6NL/3Tw9WnHvib6mtff3wZVSY0V73lbdW5r3zVsiz1wlpNpnykfF2r71QOkrf8Sx3Cgfxb1yETK+tIPYuS8pF4O6JtjFF85Tw0jdXKp20uqRybyjkvkrscTedI8hWha8q7KaZVVsqTxND9InDE99g7z2rws7bg8YBybpp0iX4s3Dn38tCoPNJA3OMo3KFP3vjiJ3+uK/FTz5vACyg3KLk5Sf+l/eJLe+wlbxQcHycPhOr2NKujXFvyMF7TQZymOl0mE4vUkboZp9rrcsmx9KFWfGVSJEfXvok3FtzoDoEIRemFXifMe6N7+siR6sgPFl9dvPgtgpN/9tgWPW944ntt/Cz8rx/+cPHVxU8uvrr4tOrnX/zi4jcswlDyhCvjAOXCbfNwk5U/AtAWyQU/r43f2JAbal34eApcbnBxvMCAxZW0Cr5e4Eq/2kbu0BvG6rXx64o7fxV0fOIjE76ji//2LP4TZLKKjk0F4ZZ8LXtjEwK5uOVzXc+ReyLcE3MKPrnt99QY5spXio8plSNwqZx1vdfGb44ItwimRl3vtfELDAbGysDGJgS5h7xShHl3B1Lxxl6OQEueXXZUumyNaoHcNptrgHF5bfwCg4FgYDsYqOuvjMhr4zd2LHqGgFPbVTDx9+4OyJaN9ffZEpdtNXKeIlqfH8cuwRTP6PbmjMClRqjrvTZ+c0S4RT816nqvjV/gfBnYyA6Bd3fA+jNDb8yxnnp5ArfpoaTcbwKkxrPJZwnICSHz2viBOh7lgcFAMDANBpjgke1QNnHniHCr9bLJXvuEwLvtbe0OeGNC1BhxiPHGswRjPNPdckLgiOK18QtcPES2eLq/zgPcUu618QsMBsbKwNonBN4t79TuwDZOBrhYZMz8+RBlCJWHR3mOgGcJdDzizhHhom/B1/HoJzAYCAamwQB6SLZD2cTdNBY9Q4CwpRCyqE/Z3m1960HCbZ4QDLFLYHHJeQsMBvpiAIEjntfGLzB2MLiWAvtnYG07BN4HCWXIqa3ubZ4McKqtz/5T3ySGbwqFz7qw0o4JnUZd77XxCwwGgoHtYAAdYTReG7/AzU741jYh8O4OpD4qkAvQs23OhTsl7HtCFLsE6zv7CBw9DmUTd44It0xkh7KJGxgMbCsDa5kQeHcHhtgyn+KJFB7krw4QvDpecsVlrl/uWtdvCPRxg+Kc1cddj6vrvTZ+gcFAMLAdDKATjMZr47ftuDIhQHAhr62Nn8bYHdCMtLdTOyXej01il6D9OdhGDwSOsQ1lE3eOCLdt9bRte/oJDAa8DKxMCLxBLD/vDSt2B1ZZlR8tObj/wMpn/wiG/B6E5zch9LMExNNIJpR7bfxAHY/ywGAgGJgGA0zwyNZr4wfqeJTPEeFC62Vbmzig9pfywScEsTsA/d0xtUsgkT3PU8QuQfdz0jUCAkccr43fHBHuEDiNut5r4xcYDGwrA4NPCDw3KuvGJyfCE3MbTqDcwOWfCB4HN4CvHj5UXXrl5RQXYT0ecaaIDJYbgdfGD9TxKA8MBoKBaTCAnpGt18YP1PEonzquTAi0ALa1IamO8pFByW/Gi4/coOSwvstf6okpr+dyyBcU5XgRLuQBztTHB/XfeRCuS+LNhd8YZzMDCBy1Xhu/OSLcoacadb3Xxi8wGPAysDIh8Aax/BCAVBtd77XxmyPCrRYabF3vtfELDAaCgWkwgB6mstX1Xhu/OSLcorcadb3Xxm9IHHxCMGTyETsYGJoBBI5+hrKJO0eEW4R0KJu4gcFAMNDMwOwnBAhwMz3+378mHvHnjHCB4GvU9V4bv8BgIBiYBgPoYipbXe+18Zsjwq3WXex6/ewnBJARGAxMkQEEjtyHsok7R4TbJgEVPji61hMnMBjYFAMbnxAgMBDgtfEL3Ox3YXMeA4OBYGD8DKCXZOq18QN1PMrniHAxhQnjxicEkBUYDIyRAQQslZuu99r4zRHhFsHUqOu9Nn6BwUAw0MxATAiaeVmWItAUeG38AmMHg2spMBgIBmwG0EtaeW38QB2P8jkiXMhEPCYEsBEYDEyQAQQslbqu99r4zRHhVu9cYOt6r41fYDCwKQayEwIEgASHsok7R4TbvgVGx6OfwGAgGJgGA+hhKltd77XxmyPCrdbLvm36GTNmJwRjTj5yCwZyDCBwtPPa+IE6HuVzRLjoKqDEAXU8ygODgWBgGAYmPyFAgKFnKJu4c0S41QLdt00/gcFAMDANBtDDVLa63mvjN0eE2771VseTfiY/IYCswGBgigwgcOTutfEDdTzK54hwoQWwrU0cUPtTHhgMTJWBzhMCBAYCvDZ+gfEUPtdSYDAQDNgMoJe08tr4Bc5bfztPCLgQA4OBMTKAwJHbUDZx54hwq1fMfdv0ExgMBAPDMLD1EwIEGvq8Nn6B855Bcx0FBgPBQJ4B9JKWXhu/wGH1d+snBFyIgcHAGBlA4MhtKJu4c0S47XvHQsejn8BgYKoM7HnuueeOyoXNgWC0tfGbI8KVFoi+bfoJDAaCgWkwgB6S7VA2ceeIcNu33up49LPNGDsE23x2t2BsCBxD8dr4gToe5XNEuNAC2NYmTmAwEAxMk4GNTwgQYOgbyibuHBFu2wp82/b0ExgMBAPTYAA9JNuhbOLOEeG2rZ62bU8/XXDjE4IuyYdvMLBpBhA48vDa+IE6HuVzRLhoK5C6PXECg4FgoJmBeIbg6O6nNhGSUoTaVHtd77XxCwwGgoHtYIAJHqPx2vjNEeEu9Bcm/Bg7BH7uwnMNDCBwdDWUTdw5ItwiqEPZxA0MBoKBcTKw8QkBApyiR9d7bfzmiHCL4GvU9V4bv8BgIBjYDgbQS0bjtfGbI8Kd1l1sXe+18euCG58QdEk+fIOBTTOAwJHHUDZx54hw27eA6nj0ExgMzJWB5TMEcxQaLQhdbX0R6Xi6PuxgIBgYNwPoIlkOZRN3jgi3Wi/7tuknMM1A7BCkuYmaHhhA4AjltfEL3P0QLNx2FVDiBAYDwcB2MIBeMpqc3XlCkOugtJ52oB4A5XNEuOhb8HU8+gkMBoKBaTCAHpLtUDZx54hwq/Wyb5t+NomdJwSbTD76Dga6MoDAEcdr4xcYOxhcS4HBwNQYiGcIFt9DwNH3jE/Ho5/AYCAYmAYDTPBS2ep6r43fHBFu0UuNut5r4xeYZiB2CNLcRE0PDCBwhPLa+IE6HuVzRLhASL02fqCOR3lgMBAMTIMB9JBsc3bnCUGug77qiTNH5GRqge7bpp/AYCAYmAYD6GEqW13vtfGbI8IteqtR13tt/DaJnScEm0w++g4GujKAwBHHa+MH6niUzxHhAiH12viBOh7lgcFAMOBjYCueIWDoWiDa2sQJDAaCge1ggAkYo/Ha+IE6HuVzRLhoq7e6PXHAXD3tAvtjIHYI+uNyKyMhcAzOa+M3R4Q7BE6jrvfa+AUGA8HAdjCAXjIar41fDpc7BH13qOPlEtnmerjgRuC18QsMBoKB7WAA3WM0Xhs/UMejfI4IF33rr45HP1PG2CGY8tmL3CsEDiq8Nn5zRLhD4DTqeq+NX2AwEAyMk4HlDsGUhRBqEbKhbOIGBgPBwDQYQNfIdiibuHNEuA39hYnpYuwQTPfcrSVzBI7OvDZ+oI5H+RwRLroKKnECg4FgYDsYQA8ZjdfGD9TxKF/uEOgGfdt0OEeEy66Cn/Onn8BgIBiYBgPoIdkOZRN3jgi3Of3sWk8/U8bYIZjy2YvcB3uGAGrnKKAIIwgXXW3iBAYDwcA4GVjuEGxS+KAmBAcmAoOBYEAYQJdgw2vjFxg/PsW1FLibgdgh2M3JpEoQuFTSut5r4zdHhFsmrBp1vdfGLzAYCAamwQB6mMpW13tt/IbGUewQaIEdm83JJi+vjV9gMBAMbAcDCDSj8dr4BcYOBtfSJjB2CDbB+oz6ROBSQ9b1Xhu/OSLcMmHVqOu9Nn6BwUAwMA0G0MNUtrp+FDsEJIuQeW38QB2P8sBgIBiYBgNasIayiTtH5ErQetm3TT+B42UgdgjGe256yQyBI5jXxi8wtjS5lgKDgWDAZgC9pJXXxm9oXO4Q5BIeOpExx4ebrjNm4oA6HuWBwUAwMA0G0C2yHcom7hwRbrVe9m3Tz5wxdgjmfPZHMHYEjlS8Nn6BsYPBtRQYDAQDNgPoJa2WOwRUNOGy8Z49y78LrrfT9V4bv8BgIBjYDgbQCUbjtfELjAkf11Jg/wzEDkH/nLaKiMDhNJRN3Dki3Pa9xajj0U9gMBAMTIMB9DCVra732viNHYt2CBC+sSInM5Wfrvfa+AUGA8HAdjCAQDMar41fYOxgcC1NEWOHYIpnbY05I3B0OZRN3Dki3DKhHcombmAwEAxMgwH0MJWtrvfa+PWyQ0CyXQWNOKCOR3lgMBAMTIMBhIZsvTZ+oI5H+RwRLrRetrWJA2p/ygO3l4HYIRj5uUXgSNNr4zdHhDsETqOu99r4BQYDwcB2MIBeMhqvjd/YsZcdAi2wY7M5meTltfEDdTzKA4OBYGAaDCDQZOu18QN1PMrniHCh9bKtTRxQ+1Me6Gcgdgj83IXnggEEDjK8Nn5zRLhD4DTqeq+NX2AwEAxsBwPoJaPx2vjt7BAQDCHy2vgFBgPBwDQYQAhS2ep6r43fHBFu0VeNut5r4xcYDHgZiB0CL3PH/RA4wgxlE3eOCLcI6VA2cQODgWBgGgygh2Q7lE3cbcf/BxgqE/NO0KyPAAAAAElFTkSuQmCC;" vertex="1" parent="1">
          <mxGeometry x="229.09" y="214.00000000000003" width="179" height="63.83" as="geometry" />
        </mxCell>
        <mxCell id="5OTNmD0rPefbRVRFv_l5-19" value="" style="shape=image;imageAspect=0;aspect=fixed;verticalLabelPosition=bottom;verticalAlign=top;image=https://www.gaianet.ai/images/logo-dark.png;" vertex="1" parent="1">
          <mxGeometry x="414" y="628" width="134" height="53.35" as="geometry" />
        </mxCell>
      </root>
    </mxGraphModel>
  </diagram>
</mxfile>
